<svg id="レイヤー_1" data-name="レイヤー 1" xmlns="http://www.w3.org/2000/svg" viewBox="0 0 500 500"><defs><style>.cls-1{fill:none;stroke:#000;stroke-linecap:round;stroke-linejoin:round;stroke-width:8px;}</style></defs><path id="_0" data-name="0" class="cls-1" d="M288.64,242.43c-8,6.2-24.55,11.69-47.71,13.76a54,54,0,0,1-27.19-4.38c-5.79-2.57-8.93-5.12-9.27-4.56-.68,1.15-11.7,18.56-11.7,18.56a29.16,29.16,0,0,1,3.46,6.6c4.3,11.16,3.61,26,2.28,36.74-.58,4.74-2.06,7.56-3.9,9-3.24,2.54-7.6.89-10.09-1.89-2.75-3.07-10.1-13.06-17.58-21.88-3.08-3.64-6.21-7.08-9-9.77-9.64-9.17-10.54-16.49-6.64-23.61.91-1.7,2.28-4.2,3.89-7.24,5-9.63,12.57-24.69,16.73-37.24,5.52-16.51,13.29-20.19,26.84-23.61s67.77-15.2,81.85-21.58c9.39-4.28,31-20.77,50.4-36.88M166.94,294.38c-5.3,5.29-8.73,16.52.7,26.59,9,9.53,21.11,3.67,28.1-1.16a46.56,46.56,0,0,0,5.58-4.45s-2.63,8.35,6.25,17S226.86,335,226.86,335s-1.86,6,5.6,13.49,19.43,3.19,22.73,1.43c1.8-1,9.86-5.6,18.32-11.06,7-4.52,14.33-9.62,18.56-13.67,9.4-8.94,38.05-39.28,46.09-50.66,10.1-14.34,22.14-41,42.23-62.54,3.88-4.17,8.73-8.88,14-13.78M201.32,315.36s25.17-29.09,28.58-33.09a18.26,18.26,0,0,0,3-4.74c1.68-3.88,2.55-9.36-2.31-14.22-13.25-13.26-25.17,2-34.38,9.1M226.86,335s23.23-27.12,30.56-36.43c1.14-1.46,1.91-2.49,2.14-2.9,1.71-3.13,4.84-13.41-3-19.82-7-5.74-18.37-1.45-23.65,1.67M249,352.11s13.32-14.46,18.45-19.82c.61-.64,1.21-1.27,1.77-1.83,5.28-5.28,8.42-20.39,3.85-26.67-3.86-5.32-11.33-5.81-15.68-5.21m17.63,17.66,10.74,4.22m52.69-205.33-10.43,10.44a3.34,3.34,0,0,0-.37,4.31c1.06,1.5,2.18,3,3.32,4.57a311.2,311.2,0,0,0,31.53,36.32,311.13,311.13,0,0,0,31.86,27.45c2.05,1.56,4.09,3,6.06,4.44a3.37,3.37,0,0,0,4.35-.34l10.45-10.45M389.4,53.26l-50.79,50.79a7.79,7.79,0,0,0-.86,10c.25.33.48.68.74,1A324.4,324.4,0,0,0,376,159a323.37,323.37,0,0,0,39.28,32.85c.35.27.69.5,1,.74a7.8,7.8,0,0,0,10-.82l50.8-50.8m-312.5,93.64c-16.87,19.57-32.76,41-50.23,58.87s-50.25,53.13-58.53,60.8S40,377,50.59,386.69,76.5,380,80.84,374.84s77.22-78,86.1-80.46"/></svg>