<svg id="レイヤー_1" data-name="レイヤー 1" xmlns="http://www.w3.org/2000/svg" viewBox="0 0 200 200"><defs><style>.cls-1{fill:#fff;}.cls-1,.cls-2,.cls-3,.cls-4,.cls-5{stroke:#231815;stroke-linejoin:round;}.cls-1,.cls-2,.cls-5{stroke-width:1.47px;}.cls-2,.cls-3,.cls-4{fill:#231815;}.cls-3{stroke-width:1.34px;}.cls-4{stroke-width:1.15px;}.cls-5{fill:none;}</style></defs><path class="cls-1" d="M147.59,57.16l-1.33,46.91a32.58,32.58,0,0,1-10.7,21.43h0a32.39,32.39,0,0,1-11.79,6.75,16.34,16.34,0,0,0-11.36,15.56,8.52,8.52,0,0,0,.09,1.24L100,155.15l-12.49-6.1a8.52,8.52,0,0,0,.09-1.24,16.34,16.34,0,0,0-11.36-15.56,32.39,32.39,0,0,1-11.79-6.75h0a32.58,32.58,0,0,1-10.7-21.43l-.91-46.91Z"/><path class="cls-2" d="M154.19,185.22H45.81a44.5,44.5,0,0,1,27.51-26.4l7.36-2.47,14.93,9.1,4.39-10.3,4.4,10.3,14.92-9.1,7.36,2.47A44.5,44.5,0,0,1,154.19,185.22Z"/><path class="cls-3" d="M137.63,125.5h-2.07a32.58,32.58,0,0,0,10.7-21.43l1.33-46.91H52.83l.91,46.91a32.58,32.58,0,0,0,10.7,21.43H62.37A29.2,29.2,0,0,1,33.48,92l4.36-29.36C42.23,33,68.74,11,100,11s57.77,22,62.17,51.66L166.52,92A29.2,29.2,0,0,1,137.63,125.5Z"/><polygon class="cls-4" points="119.32 156.35 104.4 165.45 100 155.15 112.49 149.06 116.17 147.25 119.32 156.35"/><polygon class="cls-4" points="100 155.15 95.61 165.45 80.68 156.35 83.83 147.25 87.51 149.06 100 155.15"/><path class="cls-5" d="M96.06,88.26c0,10.62-8.61,17.45-19.23,17.45S57.59,98.88,57.59,88.26,66.2,74.5,76.83,74.5,96.06,77.63,96.06,88.26Z"/><path class="cls-5" d="M103.94,88.26c0,10.62,8.61,17.45,19.23,17.45s19.24-6.83,19.24-17.45S133.8,74.5,123.17,74.5,103.94,77.63,103.94,88.26Z"/><path class="cls-5" d="M96,87.33a4.84,4.84,0,0,1,7.92,0"/><line class="cls-5" x1="110.12" y1="68.25" x2="123.17" y2="65.04"/><line class="cls-5" x1="89.88" y1="68.25" x2="76.83" y2="65.04"/></svg>