<svg id="レイヤー_1" data-name="レイヤー 1" xmlns="http://www.w3.org/2000/svg" viewBox="0 0 614.54 112"><defs><style>.cls-1{fill:none;stroke:#1a1311;stroke-width:2px;}</style></defs><g id="グループ_55" data-name="グループ 55"><g id="グループ_54" data-name="グループ 54"><path id="パス_22" data-name="パス 22" class="cls-1" d="M4,45.49c0-25.57,15.75-38,37-38a84.08,84.08,0,0,1,22.25,3c2.9.69,4.15,3,3.46,5.94l-1,4.57c-.69,2.9-3.32,4-6.08,3.32a75.24,75.24,0,0,0-18.52-2.49c-12.44,0-20.6,7.05-20.6,24.88V65.26c0,18.11,8.15,24.88,20.6,24.88a77.18,77.18,0,0,0,18.52-2.35c3-.83,5.39.28,6.08,3.18l1,4.42c.69,3-.83,5.53-4.15,6.36A84.39,84.39,0,0,1,41,104.52C19.73,104.52,4,92.07,4,66.5Z"/><path id="パス_23" data-name="パス 23" class="cls-1" d="M109.18,60.56c0-20.32,12.57-31.38,29.71-31.38s29.86,11.06,29.86,31.52V73c0,20.32-12.58,31.51-29.86,31.51S109.18,93.31,109.18,73Zm29.71,30c9.13,0,13.83-6,13.83-18.25V61.39c0-12.3-4.7-18.25-13.83-18.25-9,0-13.68,6-13.68,18.25V72.31c0,12.3,4.7,18.24,13.68,18.24Z"/><path id="パス_24" data-name="パス 24" class="cls-1" d="M213.13,58.76c0-19.35,12.85-29.58,28.61-29.58s28.34,10.23,28.34,29.58V97.88a4.57,4.57,0,0,1-4.29,4.84,5,5,0,0,1-.55,0h-6.5a4.58,4.58,0,0,1-4.84-4.29,5,5,0,0,1,0-.55V59.45c0-10.78-4.84-16.31-12.16-16.31-7.47,0-12.58,5.53-12.58,16.31V97.88a4.57,4.57,0,0,1-4.29,4.84,5,5,0,0,1-.55,0H218a4.57,4.57,0,0,1-4.84-4.28,5.23,5.23,0,0,1,0-.56Z"/><path id="パス_25" data-name="パス 25" class="cls-1" d="M320.4,42.18H315c-2.35,0-3.73-1-4.43-3.6l-1-3.59c-.69-2.35.55-4,2.9-4h7.88V15.91a5.21,5.21,0,0,1,4.84-5.52l5.66-1c3.46-.55,5.81,1.1,5.81,4V31h8.85a3.63,3.63,0,0,1,3.87,3.37,4.17,4.17,0,0,1,0,.5v3.46a3.63,3.63,0,0,1-3.37,3.87h-9.35v55.7a4.57,4.57,0,0,1-4.28,4.84,5.23,5.23,0,0,1-.56,0h-6.63a4.58,4.58,0,0,1-4.84-4.29,5,5,0,0,1,0-.55Z"/><path id="パス_26" data-name="パス 26" class="cls-1" d="M412.33,58.49h11.33V55.86c0-8.15-4-12.72-11.33-12.72a67.79,67.79,0,0,0-14.79,2.08c-2.9.82-5.12-.56-5.81-3.46l-1-3.46a4.8,4.8,0,0,1,3-6.08,4.12,4.12,0,0,1,.47-.13,66.91,66.91,0,0,1,18.1-2.9c16.59,0,27.65,10.36,27.65,26.67V80.61c0,13.68-12.58,23.91-27.37,23.91-15.48,0-27.37-10.37-27.37-23.91C385.24,66,396.29,58.49,412.33,58.49Zm.27,32.07c6.92,0,11.06-5,11.06-10V70.37H412.19c-7.74,0-10.5,4.7-10.5,10,0,5.11,3.59,10.22,10.91,10.22Z"/><path id="パス_27" data-name="パス 27" class="cls-1" d="M482.41,60.56c0-22,12.86-31.38,30.83-31.38a65.69,65.69,0,0,1,16,2.08c3,.83,4.15,3,3.46,5.94l-1,4a4.63,4.63,0,0,1-5.41,3.68,2.74,2.74,0,0,1-.39-.09,50.85,50.85,0,0,0-12-1.66c-9.81,0-15.34,4.84-15.34,17.7V72.72c0,13,5.53,17.84,15.34,17.84A52.35,52.35,0,0,0,525.82,89c3.18-.83,5.12.41,5.8,3l1.11,4.56a4.46,4.46,0,0,1-2.82,5.64,4.61,4.61,0,0,1-.64.16,66.17,66.17,0,0,1-16,2.07c-18,0-30.83-9.4-30.83-31.37Z"/><path id="パス_28" data-name="パス 28" class="cls-1" d="M581.53,42.18h-5.39c-2.35,0-3.73-1-4.42-3.6l-1-3.59c-.69-2.35.55-4,2.9-4h7.88V15.91a5.21,5.21,0,0,1,4.84-5.52l5.66-1c3.46-.55,5.81,1.1,5.81,4V31h8.85a3.63,3.63,0,0,1,3.87,3.37,4.17,4.17,0,0,1,0,.5v3.46a3.63,3.63,0,0,1-3.37,3.87h-9.35v55.7a4.57,4.57,0,0,1-4.29,4.84,5,5,0,0,1-.55,0h-6.63a4.58,4.58,0,0,1-4.84-4.29,5,5,0,0,1,0-.55Z"/></g></g></svg>