<svg id="レイヤー_1" data-name="レイヤー 1" xmlns="http://www.w3.org/2000/svg" viewBox="0 0 200.6 29.75"><defs><style>.cls-1{isolation:isolate;}</style></defs><g id="midori_02" data-name="midori 02" class="cls-1"><g class="cls-1"><path d="M1,12.93H4.67v1.49A7.66,7.66,0,0,1,6.51,12.9a4.37,4.37,0,0,1,2-.41,5,5,0,0,1,4.31,2.37,5.56,5.56,0,0,1,4.73-2.37q5.45,0,5.44,6.58V29H19.28V20.08a6.83,6.83,0,0,0-.56-3.27,2,2,0,0,0-1.9-1A2.41,2.41,0,0,0,14.59,17a7.43,7.43,0,0,0-.7,3.72V29H10.15V20.13q0-4.29-2.47-4.29A2.49,2.49,0,0,0,5.39,17a7.28,7.28,0,0,0-.72,3.7V29H1Z"/><path d="M33.91,6.25a2.28,2.28,0,0,1,.71-1.69,2.4,2.4,0,0,1,3.41,0,2.26,2.26,0,0,1,.71,1.7A2.32,2.32,0,0,1,38,8a2.29,2.29,0,0,1-1.7.71,2.42,2.42,0,0,1-2.42-2.44Zm4.27,6.68V29H34.47V12.93Z"/><path d="M61.5,1.13h3.74V29H61.5V27.33a6.93,6.93,0,0,1-5,2.15,7.08,7.08,0,0,1-5.48-2.42,9,9,0,0,1-2.16-6.14,8.68,8.68,0,0,1,2.16-6,6.92,6.92,0,0,1,5.4-2.42,6.85,6.85,0,0,1,5,2.31ZM52.69,20.92a5.6,5.6,0,0,0,1.24,3.77,4,4,0,0,0,3.2,1.47,4.27,4.27,0,0,0,3.33-1.42A5.5,5.5,0,0,0,61.74,21a5.51,5.51,0,0,0-1.28-3.74,4.2,4.2,0,0,0-3.3-1.43A4.09,4.09,0,0,0,54,17.29,5.34,5.34,0,0,0,52.69,20.92Z"/><path d="M75.93,20.86a8,8,0,0,1,2.49-5.93A8.79,8.79,0,0,1,90.6,15a8.15,8.15,0,0,1,2.48,6,8.15,8.15,0,0,1-2.49,6.06,8.52,8.52,0,0,1-6.16,2.43A8.18,8.18,0,0,1,78.37,27,8.33,8.33,0,0,1,75.93,20.86Zm3.79.06A5.44,5.44,0,0,0,81,24.74a5,5,0,0,0,7,0A5.26,5.26,0,0,0,89.28,21,5.27,5.27,0,0,0,88,17.26a4.94,4.94,0,0,0-6.93,0A5.16,5.16,0,0,0,79.72,20.92Z"/><path d="M103.77,12.93h3.72v1.44a7,7,0,0,1,1.81-1.47,4.12,4.12,0,0,1,1.92-.41,6.07,6.07,0,0,1,3.07.95l-1.7,3.4a3.6,3.6,0,0,0-2.06-.76c-2,0-3,1.54-3,4.59V29h-3.72Z"/><path d="M123.13,6.25a2.42,2.42,0,0,1,2.41-2.4,2.36,2.36,0,0,1,1.72.71,2.29,2.29,0,0,1,.71,1.7A2.36,2.36,0,0,1,127.26,8a2.29,2.29,0,0,1-1.7.71,2.42,2.42,0,0,1-2.43-2.44Zm4.28,6.68V29h-3.72V12.93Z"/><path d="M155.17,16.1q0-6.09,2.84-9.72a7.4,7.4,0,0,1,12.31,0q2.84,3.63,2.84,9.89t-2.84,9.87a7.55,7.55,0,0,1-6.14,3.29A7.63,7.63,0,0,1,158,26.14Q155.16,22.51,155.17,16.1Zm3.78,0a15.09,15.09,0,0,0,1.47,7.05q1.46,2.76,3.74,2.76t3.75-2.76a14.41,14.41,0,0,0,1.49-6.92,14.48,14.48,0,0,0-1.49-6.93q-1.49-2.74-3.75-2.74c-1.49,0-2.74.91-3.73,2.74A14.05,14.05,0,0,0,159,16.12Z"/><path d="M189.83,25.4h9.49V29H182.2l8.85-10.71c.87-1.07,1.6-2,2.19-2.78a21,21,0,0,0,1.35-2,5.62,5.62,0,0,0,.94-2.79,4,4,0,0,0-1.26-3,4.32,4.32,0,0,0-3.1-1.2c-2.58,0-4,1.52-4.43,4.57h-3.83q.93-8.05,8.14-8.06A8.27,8.27,0,0,1,196.9,5.3a7.22,7.22,0,0,1,2.37,5.49,8.38,8.38,0,0,1-1.1,4.07,19.16,19.16,0,0,1-1.65,2.47q-1.08,1.43-2.73,3.38Z"/></g></g></svg>