<svg id="レイヤー_1" data-name="レイヤー 1" xmlns="http://www.w3.org/2000/svg" viewBox="0 0 466.6 112"><defs><style>.cls-1{fill:none;stroke:#1a1311;stroke-width:2px;}</style></defs><g id="About"><path id="パス_17" data-name="パス 17" class="cls-1" d="M31.8,17.46A6.35,6.35,0,0,1,38,12.76h9.53a6.64,6.64,0,0,1,6.36,4.7L79.76,101c.83,2.9-.56,5.25-3.46,5.25H68.84c-2.9,0-5-1.38-5.67-4.28l-5.8-19.63H28.2l-5.66,19.49a5.5,5.5,0,0,1-5.67,4.42H9.27c-2.9,0-4.29-2.21-3.46-5.11ZM53.5,68.6,46.59,45.38c-1.25-4.14-2.63-10-3.73-15.48C41.61,35.43,40.23,41.24,39,45.38L32.07,68.6Z"/><path id="パス_18" data-name="パス 18" class="cls-1" d="M119.86,10.55c0-2.9,1.65-4.84,4.7-5.39l5.94-1.11c3.32-.41,5.53,1.52,5.53,4.42V36.81a29,29,0,0,1,14.37-4.15c14.52,0,27.93,9.68,27.93,30.14V78c0,19.08-13.55,30-29.3,30s-29.17-10.92-29.17-30ZM149,94c7.33,0,13-5.39,13-16.73V63.49c0-12.44-6-16.86-13.14-16.86-4.42,0-8.57,1.52-12.85,3.73v27C136,88.65,141.7,94,149,94Z"/><path id="パス_19" data-name="パス 19" class="cls-1" d="M220.77,64c0-20.32,12.58-31.38,29.72-31.38s29.85,11.06,29.85,31.52v12.3c0,20.32-12.58,31.52-29.85,31.52s-29.72-11.2-29.72-31.52Zm29.72,30c9.12,0,13.82-6,13.82-18.25V64.87c0-12.3-4.7-18.24-13.82-18.24S236.8,52.57,236.8,64.87V75.79c0,12.3,4.7,18.25,13.69,18.25Z"/><path id="パス_20" data-name="パス 20" class="cls-1" d="M324.72,39.3A4.57,4.57,0,0,1,329,34.46h6.91a4.58,4.58,0,0,1,4.84,4.29,5,5,0,0,1,0,.55V77.72c0,10.79,5,16.32,12.43,16.32s12.3-5.53,12.3-16.32V39.3a4.57,4.57,0,0,1,4.29-4.84h7.05a4.57,4.57,0,0,1,4.84,4.29,5,5,0,0,1,0,.55V78.42c0,19.35-13,29.58-28.48,29.58-15.75,0-28.47-10.23-28.47-29.58Z"/><path id="パス_21" data-name="パス 21" class="cls-1" d="M432,45.66h-5.4c-2.35,0-3.73-1-4.42-3.59l-1-3.6c-.69-2.35.56-4,2.9-4H432V19.4a5.21,5.21,0,0,1,4.84-5.53l5.67-1c3.45-.56,5.8,1.1,5.8,4V34.46h8.85A3.63,3.63,0,0,1,461,37.83a4.17,4.17,0,0,1,0,.5v3.45a3.63,3.63,0,0,1-3.36,3.87,2.17,2.17,0,0,1-.51,0H448.3v55.71A4.57,4.57,0,0,1,444,106.2h-7.18a4.57,4.57,0,0,1-4.84-4.29,5,5,0,0,1,0-.55Z"/></g></svg>